<svg width="24" height="24" viewBox="0 0 24 24" fill="none" xmlns="http://www.w3.org/2000/svg">
<path fill-rule="evenodd" clip-rule="evenodd" d="M7.86234 2H16.1379C17.1871 2 18.058 2.8109 18.1328 3.85751L18.5014 9.01779C18.7466 12.4513 16.2941 15.4179 13.0001 15.924V18.6529C13.0001 19.1417 13.3535 19.5589 13.8357 19.6393L15.1645 19.8607C15.6467 19.9411 16.0001 20.3583 16.0001 20.8471V21C16.0001 21.5523 15.5524 22 15.0001 22H9.00012C8.44784 22 8.00012 21.5523 8.00012 21V20.8471C8.00012 20.3583 8.35353 19.9411 8.83572 19.8607L10.1645 19.6393C10.6467 19.5589 11.0001 19.1417 11.0001 18.6529V15.924C7.70614 15.4179 5.25359 12.4513 5.49883 9.01779L5.86742 3.8575C5.94218 2.81089 6.81306 2 7.86234 2ZM16.1379 4L7.86234 4L7.71949 6H16.2807L16.1379 4ZM16.4236 8H7.57663L7.49375 9.16028C7.30695 11.7755 9.37821 14 12.0001 14C14.622 14 16.6933 11.7755 16.5065 9.16029L16.4236 8Z" fill="#6F767E"/>
</svg>
